<?xml version="1.0" encoding="UTF-8" standalone="no"?>
<!-- Created with EazyDraw for Mac ( http://www.eazydraw.com/ ) -->

<svg
   xmlns:dc="http://purl.org/dc/elements/1.1/"
   xmlns:cc="http://creativecommons.org/ns#"
   xmlns:rdf="http://www.w3.org/1999/02/22-rdf-syntax-ns#"
   xmlns:svg="http://www.w3.org/2000/svg"
   xmlns="http://www.w3.org/2000/svg"
   xmlns:sodipodi="http://sodipodi.sourceforge.net/DTD/sodipodi-0.dtd"
   xmlns:inkscape="http://www.inkscape.org/namespaces/inkscape"
   version="1.1"
   width="382"
   height="382"
   id="svg2"
   inkscape:version="0.91 r13725"
   sodipodi:docname="retropie.svg">
  <sodipodi:namedview
     pagecolor="#ffffff"
     bordercolor="#666666"
     borderopacity="1"
     objecttolerance="10"
     gridtolerance="10"
     guidetolerance="10"
     inkscape:pageopacity="0"
     inkscape:pageshadow="2"
     inkscape:window-width="1280"
     inkscape:window-height="751"
     id="namedview3436"
     showgrid="false"
     inkscape:snap-global="true"
     inkscape:zoom="1.2025067"
     inkscape:cx="168.37666"
     inkscape:cy="228.27315"
     inkscape:window-x="0"
     inkscape:window-y="0"
     inkscape:window-maximized="1"
     inkscape:current-layer="svg2" />
  <defs
     id="defs_34C59672" />
  <metadata
     id="metadata7">
    <rdf:RDF>
      <cc:Work
         rdf:about="">
        <dc:format>image/svg+xml</dc:format>
        <dc:type
           rdf:resource="http://purl.org/dc/dcmitype/StillImage" />
        <dc:title></dc:title>
      </cc:Work>
    </rdf:RDF>
  </metadata>
  <g
     id="layer_Paper"
     style="fill:#000000;fill-opacity:1;fill-rule:nonzero;stroke:#000000;stroke-width:1;stroke-linecap:square;stroke-linejoin:miter;stroke-miterlimit:10;stroke-opacity:1"
     transform="translate(0,-74.546285)" />
  <g
     id="layer_g242"
     style="fill:#000000;fill-opacity:1;fill-rule:nonzero;stroke:#000000;stroke-width:1;stroke-linecap:square;stroke-linejoin:miter;stroke-miterlimit:10;stroke-opacity:1"
     transform="translate(0,-74.546285)">
    <path
       style="fill:#fee600;stroke:none"
       id="8BAE5F62"
       d="m 1507.3992,102.4473 -35.499,-35.501003 c -1.986,-1.983 -3.097,-4.694 -3.075,-7.5 0.021,-2.805 1.169,-5.5 3.182,-7.456 l 35.501,-34.5 c 4.135,-4.019 10.746,-3.948 14.793,0.159 l 34.501,35.002 c 4.026,4.083 4.026,10.656 0,14.741 l -34.501,35.000003 c -1.968,2 -4.634,3.119 -7.439,3.13 l -0.033,0 c -2.9,-0.01 -5.6,-1.11 -7.5,-3.08 z m -13.2,-42.820003 20.49,20.491 19.809,-20.098 -19.914,-20.203 -20.4,19.81 z"
       inkscape:connector-curvature="0" />
    <path
       style="stroke:none"
       id="6EAE5F62"
       d="m 1514.7992,111.0173 c -4.241,0.002 -8.318,-1.684 -11.318,-4.686 l 3.888,-3.89 -3.888,3.888 -35.5,-35.490003 c -2.999,-3 -4.683,-7.06 -4.689,-11.296 0,-0.013 0,-0.051 0,-0.106 0,-0.051 0,-0.118 0.01,-0.202 0.077,-4.219 1.813,-8.238 4.844,-11.187 l 35.502,-34.5 c 3.094,-3.01 7.146,-4.531 11.147,-4.524 4.115,-0.006 8.277,1.6 11.396,4.765 l 34.501,35.002 c 3.061,3.101 4.607,7.192 4.602,11.232 0.01,4.04 -1.543,8.129 -4.602,11.232 l -34.498,34.996003 c -2.99,3.043 -7.082,4.761 -11.358,4.774 l 0.1,0 z m 0,-11 0.012,0 c 1.353,-0.011 2.595,-0.533003 3.542,-1.492003 l 34.501,-34.998 c 0.966,-0.986 1.432,-2.226 1.437,-3.512 0,-1.291 -0.471,-2.528 -1.437,-3.51 l -34.498,-35 c -0.992,-1.003 -2.252,-1.483 -3.563,-1.49 -1.272,0.004 -2.499,0.46 -3.48,1.412 l -35.502,34.5 c -0.952,0.921 -1.507,2.224 -1.516,3.552 l -10e-4,0.141 c 0.026,1.275 0.556,2.524 1.466,3.428 l 35.497,35.5 c 1,0.955 2.2,1.469003 3.6,1.469003 z m -24.5,-36.502003 -3.945,-3.945 28.301,-27.503 27.555,27.952 -27.503,27.905 -24.5,-24.409 z m 24.4,8.796 12.115,-12.292 -12.274,-12.452 -12.468,12.116 12.7,12.628 z"
       inkscape:connector-curvature="0" />
  </g>
  <g
     id="Layer_5_1_"
     style="fill:#000000;fill-opacity:1;fill-rule:nonzero;stroke:#000000;stroke-width:1;stroke-linecap:square;stroke-linejoin:miter;stroke-miterlimit:10;stroke-opacity:1"
     transform="translate(51.558962,0.2973703)">
    <path
       style="fill:#991a37;stroke:none"
       id="E4BE5F62"
       d="m 140.21147,379.03881 c -21.68261,0 -42.786787,-4.11222 -59.419619,-11.57931 -18.153798,-8.15121 -30.562049,-19.98811 -35.882308,-34.22943 -2.371541,-6.35144 -19.035583,-50.95963 -27.561314,-73.78868 0.395326,0.092 0.814788,0.17394 1.258386,0.2451 0.544301,0.0861 1.082361,0.15938 1.615844,0.23262 2.026567,0.27756 3.776822,0.51558 5.413473,1.39363 2.194684,1.17599 2.866739,2.95912 3.86629,6.00979 l 2.807649,8.47538 c 0.61879,1.87093 2.811394,2.59875 7.822882,2.59875 0.554289,0 0.991645,-0.01 1.217605,-0.0187 0.434859,-0.0129 0.867221,-0.0291 1.29667,-0.0458 1.01911,-0.0391 1.980377,-0.0741 2.942892,-0.0741 1.667861,0 3.024454,0.11902 4.267859,0.37619 2.89795,0.59756 5.289466,1.71488 6.914048,3.2296 0.903841,0.84101 1.235499,1.76066 1.693661,3.03403 0.265077,0.73447 0.565109,1.5684 1.012868,2.43854 2.144333,4.16008 7.142921,6.54702 13.715324,6.54702 1.148111,0 2.298718,-0.0732 3.421861,-0.21972 1.543437,-0.20016 3.021957,-0.53515 4.452206,-0.85848 1.864691,-0.42363 3.626598,-0.8202 5.429702,-0.91591 0.518918,-0.0275 1.039916,-0.0429 1.560914,-0.0429 2.44811,0 4.822564,0.30585 7.059279,0.90342 2.939146,0.78816 5.285718,1.95791 6.974808,3.48345 0.43444,0.38492 0.83018,0.76485 1.21885,1.13563 1.27461,1.21594 2.59126,2.47183 4.5088,3.40937 2.83886,1.38864 6.15086,2.12103 9.5773,2.12103 3.57042,0 7.13418,-0.77817 10.30553,-2.25502 l 0.61421,-0.28505 c 2.81639,-1.31457 5.2491,-2.45103 8.1483,-2.96079 1.7128,-0.29961 3.47721,-0.45317 5.24327,-0.45317 1.24424,0 2.50388,0.077 3.74187,0.22763 2.86632,0.34664 5.50336,1.44523 8.29478,2.60541 3.06107,1.27336 6.22701,2.59001 9.83738,2.93457 0.80064,0.0753 1.61043,0.11443 2.40442,0.11443 2.73565,0 5.33732,-0.44235 7.73091,-1.31748 3.02529,-1.1015 4.90954,-2.8788 6.90448,-4.76264 l 0.521,-0.4902 c 4.16299,-3.90333 10.48821,-4.48716 13.88885,-4.48716 0.58217,0 1.17349,0.0166 1.7565,0.0508 2.03822,0.11443 4.00569,0.49728 6.09052,0.90217 2.48431,0.4823 5.05352,0.98332 7.72967,0.98332 1.94126,0 3.73146,-0.26091 5.47589,-0.79606 3.93245,-1.20096 6.70806,-3.55877 7.81331,-6.63565 l 0.03,-0.0861 0.0233,-0.0878 c 0.70035,-2.62912 1.59046,-4.04606 3.28037,-5.22538 1.96789,-1.37906 4.49757,-2.25877 7.5216,-2.62122 0.63086,-0.0741 1.32247,-0.11152 2.11313,-0.11152 0.82602,0 1.6508,0.0391 2.52509,0.0791 0.8822,0.0412 1.79603,0.0832 2.72109,0.0832 0.64709,0 1.23384,-0.0216 1.79645,-0.0637 l 0.36037,-0.0233 c 1.75525,-0.11818 5.02314,-0.33582 5.95528,-3.07522 l 1.60045,-4.71479 c 0.24759,-0.72948 0.47106,-1.51472 0.6862,-2.27458 0.583,-2.05279 1.18639,-4.17756 2.30163,-5.43262 1.68242,-1.89631 4.48258,-2.57336 6.53495,-2.80973 l 0.45109,-0.0499 c 0.92048,-0.10362 1.92545,-0.21389 2.93915,-0.42862 l -27.99784,73.57646 c -5.42055,14.24589 -18.02064,26.12316 -36.43493,34.34261 -16.90832,7.54866 -38.2472,11.70166 -60.08543,11.70166"
       inkscape:connector-curvature="0" />
    <path
       style="fill:#010101;stroke:none"
       id="D8BE5F62"
       d="m 268.19314,255.4307 c -0.0146,0.0129 -0.0275,0.0275 -0.0416,0.0412 -0.037,0.037 -0.0682,0.0695 -0.0732,0.0741 0.0375,-0.0375 0.0749,-0.0749 0.11652,-0.11652 m 0.004,-0.004 -0.003,0.005 0.004,-0.004 z m 0.004,-0.004 c -0.002,8.3e-4 -0.004,0.003 -0.006,0.005 l 0.004,-0.004 z m 0.0208,-0.0208 c -0.0171,0.0166 -0.0487,0.0499 -0.089,0.0891 l 0.0187,-0.0175 c 0.025,-0.025 0.0499,-0.0499 0.0707,-0.0707 m 0.0125,-0.0166 c -0.005,0.007 -0.009,0.01 -0.0137,0.0158 0.003,-0.004 0.008,-0.008 0.0104,-0.01 l 0,-0.008 m 0.004,-0.004 -0.008,0.01 c -0.0108,0.01 -0.0208,0.0204 -0.03,0.0304 0.0291,-0.0208 0.0375,-0.0374 0.0375,-0.0374 M 13.052073,254.0741 c 7.347658,19.66894 27.240892,72.92313 29.849213,79.91 11.787796,31.55578 54.475957,47.20612 97.312674,47.20612 43.19044,0 86.52652,-15.89669 98.52779,-47.42667 2.79766,-7.34974 23.01007,-60.4433 30.31903,-79.63951 -0.18268,0.47647 -0.47023,0.90426 -0.82186,1.26837 0.0395,-0.0383 0.0707,-0.0703 0.0707,-0.0703 0,0 -0.0304,0.032 -0.11319,0.1161 -0.0845,0.0849 -0.11569,0.1161 -0.11569,0.1161 0,0 0,-8.3e-4 8.4e-4,-8.3e-4 -0.46566,0.47064 -0.62587,0.63293 -0.62587,0.63293 -0.002,0 0.46482,-0.47064 0.6808,-0.68953 -1.8493,1.81351 -4.60451,2.01367 -7.03057,2.29206 -2.85301,0.32708 -5.93031,1.30375 -7.89404,3.51466 -1.92753,2.16972 -2.50262,5.7547 -3.41562,8.44334 -0.5339,1.57131 -1.0678,3.14346 -1.60003,4.71395 -0.51226,1.5089 -2.98617,1.54011 -4.44472,1.64955 -0.54555,0.0412 -1.09151,0.0574 -1.63623,0.0574 -1.75067,0 -3.49468,-0.16105 -5.24619,-0.16105 -0.78649,0 -1.57548,0.0312 -2.36738,0.12484 -2.98409,0.35746 -6.01229,1.25381 -8.49493,2.99117 -2.37363,1.65704 -3.40023,3.71273 -4.12596,6.43466 -1.00455,2.79974 -3.69568,4.47759 -6.42176,5.30944 -1.65538,0.50768 -3.26332,0.70118 -4.84754,0.70118 -4.58162,0 -8.96059,-1.61334 -13.69826,-1.88175 -0.61504,-0.0362 -1.24299,-0.0545 -1.87759,-0.0545 -5.42138,0 -11.37416,1.33495 -15.35655,5.06725 -2.13976,2.00701 -3.8459,3.76767 -6.69184,4.80384 -2.23089,0.81437 -4.61866,1.18764 -6.99727,1.18764 -0.73531,0 -1.47186,-0.037 -2.20051,-0.10528 -6.44132,-0.61338 -11.62218,-4.75016 -18.07682,-5.53499 -1.32704,-0.16021 -2.66325,-0.24135 -4.00028,-0.24135 -1.88175,0 -3.76267,0.16021 -5.61447,0.48438 -3.40521,0.59964 -6.2062,1.97871 -9.29641,3.41603 -2.87298,1.33704 -6.14545,2.0557 -9.40127,2.0557 -2.99907,0 -5.98482,-0.61047 -8.63476,-1.90631 -2.16472,-1.05864 -3.48594,-2.65701 -5.23204,-4.21001 -2.19385,-1.97955 -5.031043,-3.20589 -7.857834,-3.96284 -2.476407,-0.6629 -5.048524,-0.97375 -7.612735,-0.97375 -0.557618,0 -1.117317,0.0146 -1.673271,0.0429 -3.45307,0.18185 -6.64689,1.34661 -10.045448,1.79021 -0.979993,0.12608 -2.045709,0.20099 -3.146797,0.20099 -4.545836,0 -9.688406,-1.27337 -11.806939,-5.38476 -1.132297,-2.19635 -1.209282,-4.24913 -3.150958,-6.06139 -2.168885,-2.0195 -5.075989,-3.16594 -7.943977,-3.75685 -1.587547,-0.32916 -3.142636,-0.42279 -4.701053,-0.42279 -1.42151,0 -2.847182,0.077 -4.30864,0.12401 -0.21306,0.007 -0.62628,0.0166 -1.149776,0.0166 -1.958321,0 -5.460079,-0.14148 -5.786744,-1.12897 -0.868469,-2.62288 -1.740267,-5.24993 -2.609569,-7.87698 -1.064468,-3.21379 -1.824743,-6.07637 -5.086809,-7.82538 -2.459761,-1.31747 -5.019395,-1.42858 -7.706365,-1.85345 -2.201343,-0.34955 -5.056015,-1.21095 -5.913248,-3.49968 m -0.0083,-0.0167 c 0.0021,0.005 0.0029,0.009 0.005,0.0137 0,0 0,-0.008 -0.0042,-0.0125 m 248.398053,8.0064 -10.6322,27.92876 -16.0827,42.23749 c -5.21373,13.70034 -17.42224,25.16231 -35.30472,33.1454 -16.63866,7.42881 -37.66752,11.51648 -59.21155,11.51648 -21.38673,0 -42.179228,-4.04606 -58.541574,-11.39164 -17.619067,-7.91027 -29.635737,-19.3302 -34.751258,-33.02347 -2.256689,-6.04309 -17.458024,-46.74005 -26.271303,-70.33479 1.564244,0.22055 2.846349,0.45317 3.973653,1.05656 1.418597,0.7607 1.882169,1.85762 2.842604,4.7872 l 0.198079,0.60838 1.569654,4.73352 1.039916,3.14055 c 1.347022,4.07144 6.885335,4.07144 9.859853,4.07144 0.586331,0 1.048239,-0.0116 1.286267,-0.0187 0.439436,-0.0146 0.876376,-0.0304 1.311651,-0.0487 0.997886,-0.0362 1.940011,-0.0724 2.860913,-0.0724 1.539692,0 2.721509,0.10237 3.833833,0.33291 2.51261,0.51642 4.548332,1.45106 5.886616,2.69737 0.479385,0.44735 0.682458,0.92964 1.136875,2.19136 0.287131,0.79773 0.612131,1.69824 1.123975,2.69446 2.523846,4.90038 8.218208,7.71011 15.621629,7.71011 1.240908,0 2.484729,-0.0812 3.70067,-0.23844 1.641228,-0.21181 3.169268,-0.55845 4.647372,-0.89344 1.77231,-0.40157 3.447245,-0.77942 5.068499,-0.86514 0.482714,-0.0275 0.970005,-0.037 1.44939,-0.037 2.259602,0 4.448045,0.27715 6.503742,0.82811 2.607904,0.69619 4.656943,1.70697 6.117984,3.02528 0.38326,0.3429 0.7557,0.69744 1.14978,1.0703 1.32704,1.26962 2.8322,2.70403 5.04477,3.78514 3.13224,1.53304 6.76965,2.342 10.52068,2.342 3.88127,0 7.75713,-0.8485 11.21103,-2.45394 l 0.61754,-0.28921 c 2.67824,-1.2509 4.99152,-2.33118 7.61316,-2.79184 1.58879,-0.27839 3.22752,-0.42071 4.87,-0.42071 1.15935,0 2.33076,0.0712 3.48303,0.21182 2.57378,0.31251 5.07807,1.35534 7.73009,2.45684 3.20838,1.33579 6.52538,2.71569 10.45783,3.08771 0.86722,0.0857 1.74443,0.12609 2.60707,0.12609 2.98784,0 5.83627,-0.48729 8.4654,-1.44523 3.44142,-1.25381 5.57743,-3.27164 7.64311,-5.21956 l 0.51517,-0.48645 c 2.64786,-2.48224 7.17621,-3.90708 12.42157,-3.90708 0.54305,0 1.09276,0.0175 1.63415,0.0479 1.89424,0.10653 3.79181,0.47647 5.80339,0.86722 2.58419,0.5031 5.25701,1.02161 8.13873,1.02161 2.15806,0 4.15425,-0.29088 6.10176,-0.88762 4.59826,-1.40611 7.86824,-4.23456 9.20694,-7.96686 l 0.0603,-0.16812 0.0462,-0.17477 c 0.56843,-2.13102 1.18389,-3.14472 2.43854,-4.02234 1.65079,-1.15519 3.91373,-1.93169 6.54452,-2.24629 0.54596,-0.0645 1.15435,-0.0965 1.85928,-0.0965 0.77734,0 1.57798,0.037 2.42564,0.0762 0.908,0.042 1.84638,0.0849 2.82013,0.0849 0.70118,0 1.34161,-0.0225 1.95541,-0.0674 l 0.34414,-0.0254 c 1.93003,-0.12775 6.45131,-0.42778 7.84411,-4.52627 l 0.74321,-2.18928 0.8564,-2.52343 c 0.26508,-0.78108 0.49562,-1.59171 0.71908,-2.37778 0.49228,-1.73736 1.05157,-3.70525 1.84264,-4.59577 0.94462,-1.05282 2.72567,-1.79354 5.03104,-2.07651"
       inkscape:connector-curvature="0" />
    <path
       style="fill:#010101;stroke:none"
       id="EBBE5F62"
       d="m 130.45731,168.55047 c -4.14551,0 -7.89321,1.59171 -11.95716,1.85595 -3.96159,0.25676 -7.9161,-0.42154 -11.88434,-0.11651 -5.06101,0.38866 -9.36299,3.13431 -14.505977,3.13431 -4.733512,0 -9.657612,-0.0849 -13.99122,2.16847 -7.07634,3.67861 -17.553734,1.36034 -23.403314,7.40924 -4.72519,4.88748 -13.63834,2.42772 -19.036416,7.53575 -1.397791,1.32331 -1.612515,3.53131 -3.387738,4.14094 -1.994109,0.68912 -4.074357,1.11274 -6.07554,1.78521 -3.924966,1.32039 -8.112927,3.59539 -9.638471,7.7176 -0.97916,2.64286 0.342478,2.99283 -2.329928,4.09142 -1.845133,0.75986 -3.644076,1.65371 -5.2278773,2.88214 -2.9016947,2.25086 -3.6761181,5.34606 -4.09558,9.02842 -0.032042,0.27506 0.039117,4.99318 0.04411,4.98818 -1.3969582,1.13397 -2.627047,2.50013 -3.519236,4.0702 -2.11187445,3.72356 -1.70115127,7.68847 -0.1344109,11.55851 1.700319,4.19628 3.1384743,5.78216 3.3095049,10.10245 -0.1822662,2.07027 0.8164528,4.22375 1.5713179,6.07513 3.2154589,7.89654 5.0464434,13.92464 14.6358104,14.12813 1.937931,0.0412 2.849678,7.65351 3.570836,9.57022 1.778968,4.73226 6.041002,7.98809 10.842759,9.27352 6.494586,1.74235 16.740194,-2.10563 19.641889,5.47257 3.290363,8.59189 13.502264,11.76948 21.932285,11.0812 6.810015,-0.55762 16.815098,-4.87 22.37713,1.45314 6.430086,7.30771 17.352746,9.15242 26.451486,6.75675 8.34139,-2.19427 14.46228,-7.25778 23.47864,-3.78723 9.95306,3.833 19.15626,7.21699 29.42351,1.63166 7.22489,-3.93079 9.90188,-9.40419 19.29899,-7.81539 8.28812,1.40902 16.20963,3.16011 23.87105,-1.65039 5.59033,-3.50592 5.74055,-11.60053 12.43363,-12.3916 5.89245,-0.69536 11.61885,0.70201 17.20585,-2.20884 6.75384,-3.51466 8.32516,-11.15236 9.82656,-17.98734 5.94529,-0.88262 11.09369,-2.49597 13.2684,-8.84491 1.36034,-3.00281 2.75189,-6.24199 3.19632,-9.53818 0.19808,-1.31331 0.13857,-2.65534 -0.15272,-3.9491 0.97791,-1.26754 1.9604,-2.39651 2.65534,-3.86046 3.35195,-7.06636 2.57461,-15.31328 -4.25371,-19.84746 1.80602,-6.47087 -0.22263,-11.04625 -6.11882,-14.4627 -2.97993,-1.72612 -4.61907,-1.44357 -5.51209,-4.69773 -0.84101,-3.01571 -2.22215,-5.38101 -4.87126,-6.93485 -3.41437,-2.00202 -7.28274,-2.37487 -10.87355,-3.85839 -1.47519,-3.8409 -5.22954,-6.11507 -8.96683,-7.34765 -3.09228,-1.01953 -6.3194,-1.15436 -9.44206,-1.98787 -3.21005,-0.86098 -5.02355,-3.85589 -8.31641,-5.0531 -3.56793,-1.29667 -7.35557,-1.41485 -11.0887,-1.80768 -4.01984,-0.42279 -6.81292,-2.86258 -10.61721,-3.84882 -4.01818,-1.05614 -7.9652,-0.78358 -12.03789,-1.02993 -4.09392,-0.24551 -7.55947,-2.3861 -11.59513,-2.90169 -3.20256,-0.40906 -6.40928,-0.13732 -9.61766,-0.009 -4.38521,0.17228 -8.33847,-1.21053 -12.63879,-1.74651 -4.05355,-0.50476 -8.01555,0.25385 -12.03998,0.64876 -3.99071,0.41613 -7.71926,-0.87388 -11.70165,-0.87388"
       inkscape:connector-curvature="0" />
    <path
       style="fill:#991a37;stroke:none"
       id="00CE5F62"
       d="m 117.95252,310.36856 c -5.36187,0 -11.02627,-1.77439 -14.71321,-6.04974 -2.88672,-3.34779 -7.258609,-4.75598 -11.435334,-5.19708 -5.99273,-0.63294 -11.396632,1.95998 -17.308632,1.95998 -5.237865,0 -11.331715,-1.78437 -14.12147,-6.85662 -1.061555,-1.94334 -1.054481,-4.2354 -2.690716,-5.8192 -2.145165,-2.10147 -5.24369,-3.04901 -8.093368,-3.40438 -5.618211,-0.69619 -11.139046,1.08486 -16.344868,-2.21591 -2.077752,-1.3154 -3.663218,-3.39065 -4.195868,-5.91991 -0.356626,-1.32122 -2.553392,-8.91523 -2.859666,-10.52733 -0.450672,-2.37487 -7.676403,-0.75486 -10.104123,-2.14059 -2.204256,-1.25797 -3.309089,-4.60659 -4.015266,-6.17083 -0.706594,-1.56341 -2.8750622,-6.43175 -3.015299,-7.95979 0.3612033,-0.72574 8.29228,-2.3653 8.29228,-2.3653 0,0 -1.386138,-0.3895 -3.810113,-1.22468 -2.424806,-0.83393 -5.2574226,-3.25582 -5.9648486,-4.61616 -0.7086743,-1.36242 -4.0610409,-7.21366 -3.0227893,-10.18152 1.5351142,-1.92004 9.2822609,-1.71863 10.9913179,-3.1493 -0.397823,-0.48438 -4.719363,-3.69526 -5.206238,-4.36024 -1.6674449,-2.27625 -1.2808574,-7.30937 0.444846,-9.36507 1.816004,-2.16389 9.736261,-1.07487 12.530177,-2.71818 1.080698,-0.63668 -3.879607,-0.33332 -2.906272,-1.15727 1.255057,-1.06113 0.75653,-4.60243 0.946286,-6.11965 0.778169,-6.23034 11.241831,-4.2612 15.232545,-5.84333 1.190557,-0.47315 2.322438,0.57051 3.321157,-0.27007 0.606306,-0.51351 0.549295,-2.32244 1.081113,-3.16012 1.391965,-2.1976 6.742185,-5.06101 9.057549,-5.7676 2.589179,-0.7894 2.580856,0.8202 5.161296,-0.0112 1.235915,-0.39823 2.568373,-0.87679 3.613282,-1.70406 0.864308,-0.67081 1.277944,-1.98038 2.280825,-2.69529 2.482232,-1.77023 5.177941,-3.02529 7.99641,-3.6162 2.8709,-0.60173 5.868722,-0.52183 8.958092,-0.52058 2.088988,0 3.28537,-2.37404 5.298205,-3.09478 2.891291,-1.41069 4.847948,-1.86636 7.685974,-2.19926 2.54923,0.14065 6.114241,0.92007 8.577748,0.21181 2.200508,-0.63003 4.036908,-1.94376 6.328128,-2.39193 5.08265,-0.99123 10.12493,0.54014 15.22256,-0.34248 2.23006,-0.38659 4.26328,-1.37615 6.51997,-1.66079 2.66991,-0.33582 5.46882,-0.25717 8.07881,0.43986 5.28572,1.43316 10.19609,-0.64876 15.44768,-0.58634 3.91581,0.0462 7.31728,1.74984 11.15569,2.11729 4.69481,0.44485 9.27186,-0.82811 13.94836,0.27049 2.13476,0.5031 3.8896,1.78021 5.9815,2.34532 2.61331,0.70077 5.29196,-0.23636 7.96936,-0.30045 2.33117,0.20599 3.90707,1.10775 6.99769,2.4839 2.72109,1.13563 4.38479,2.21341 6.8354,3.05067 2.83012,0.96584 3.37692,-0.43985 6.46712,-0.10237 3.27996,0.35788 8.2619,2.5767 10.51901,4.5371 0.91008,0.7894 1.24839,1.98454 2.25793,2.59667 1.04699,0.63835 2.2209,1.0757 3.38025,1.43358 2.01949,0.61962 0.46815,-1.24133 2.54008,-0.88262 3.17426,0.64292 8.43792,3.60454 10.27681,5.29196 0.97417,0.89219 1.72737,2.08274 1.87468,3.4564 0.12942,1.2484 1.25839,1.58755 2.40525,1.36283 0.43652,-0.0853 0.89094,-0.22637 1.56258,-0.062 2.47557,0.80147 8.54113,-0.47314 11.12115,1.77481 1.82766,1.59379 3.30243,1.6329 3.67196,4.33902 0.16687,1.22426 0.61338,7.06427 1.55717,6.95399 2.43521,1.0936 7.0289,0.13608 9.23523,2.78227 0.96668,1.16101 1.7436,2.18345 1.22011,4.16507 -0.52475,1.98163 -2.31329,8.09503 -1.83307,8.46414 2.30538,1.76066 5.9532,1.19639 6.97314,3.74395 1.09318,2.73649 -0.40864,8.88278 -2.02116,10.69129 -0.48105,0.53723 -3.02445,3.81927 -3.10268,4.45012 1.19638,1.64165 1.1402,2.02948 1.08527,3.19715 -0.0562,1.16892 -0.90509,4.36815 -2.93831,8.90317 -1.89299,6.13671 -9.11706,4.87291 -13.71824,6.47086 -0.44485,2.44728 -2.61082,12.87599 -4.50797,15.3241 -3.76475,4.8546 -10.05793,4.48258 -15.38651,4.30947 -2.70279,-0.087 -5.48047,0.30752 -7.98726,1.39862 -1.1581,0.50311 -2.275,1.16892 -3.19673,2.06444 -1.22718,1.18931 -1.43233,2.46101 -1.91463,4.04398 -1.70864,5.59199 -7.47416,8.1329 -12.62256,8.61603 -4.30905,0.40032 -8.08255,-0.90051 -12.2601,-1.62292 -4.06021,-0.70326 -8.36802,-0.45608 -12.28009,0.92382 -1.84679,0.65124 -3.66613,1.5838 -5.1176,2.96494 -1.36283,1.3 -2.44228,2.74814 -4.01235,3.8201 -3.43143,2.34782 -7.60192,3.34946 -11.66587,3.34946 -4.15592,0 -8.34263,-1.05157 -11.97464,-3.18758 -3.57583,-2.0919 -7.80915,-2.88963 -11.86603,-2.88963 -4.05647,0.005 -8.29936,0.79315 -11.86686,2.90336 -3.63701,2.1306 -7.83995,3.19174 -12.0096,3.19174"
       inkscape:connector-curvature="0" />
    <path
       style="fill:#cb2027;stroke:none"
       id="93CE5F62"
       d="m 117.41571,296.95244 c -5.48672,0 -11.28303,-1.61252 -15.05486,-5.49212 -2.955375,-3.03819 -7.428387,-4.31738 -11.700824,-4.7177 -6.133799,-0.57343 -11.662957,1.78021 -17.713945,1.78021 -5.356879,0 -11.593047,-1.62125 -14.448551,-6.22576 -1.086939,-1.76357 -1.0782,-3.8459 -2.753967,-5.28322 -2.193437,-1.90839 -5.364785,-2.7677 -8.280212,-3.08771 -5.748877,-0.63585 -11.397464,0.98332 -16.722717,-2.01575 -2.128104,-1.19347 -3.809281,-3.06648 -4.295324,-5.37311 -0.230122,-1.11523 -0.174776,-2.2596 0.115685,-3.35819 0.291709,-1.08486 0.912579,-2.06818 0.405313,-3.18924 -0.920486,-2.03697 -3.832167,-2.88588 -5.953613,-3.21879 -2.71818,-0.42986 -5.347308,-0.47356 -7.831621,-1.73319 -2.255024,-1.1427 -3.9973728,-3.13848 -4.1097287,-5.60074 -0.1256722,-2.77352 1.6503827,-4.61241 3.4114577,-6.60153 1.784378,-2.01283 0.602144,-3.40521 -1.816836,-3.99529 -2.5654598,-0.62503 -5.1821034,-2.01075 -5.9839915,-4.52919 -0.8410046,-2.6258 0.7523682,-5.14465 2.8014066,-6.84455 1.7677326,-1.46396 4.5029739,-2.31162 5.6581589,-4.34069 0.394078,-0.69327 -1.945837,-1.72528 -2.444364,-2.32868 -1.7061454,-2.06734 -1.1818179,-4.72851 0.583418,-6.59279 1.857617,-1.96498 4.430151,-2.93831 6.948587,-3.9362 1.172246,-0.46191 2.326183,-1.02702 3.322405,-1.77606 1.282522,-0.96418 0.347471,-1.12397 0.08988,-2.49222 -1.131049,-6.00646 8.337222,-7.27899 12.420318,-8.7159 1.218854,-0.42778 2.467252,-0.94712 3.489275,-1.71114 0.622119,-0.46523 0.565108,-2.10813 1.107746,-2.86882 1.424423,-1.99577 4.120548,-3.00281 6.490424,-3.64532 2.647438,-0.71492 5.418883,-0.84434 8.057166,-1.60003 1.266708,-0.36287 2.62996,-0.79648 3.698589,-1.54719 0.884282,-0.61005 1.307073,-1.79852 2.333673,-2.44727 5.126341,-3.24334 11.749929,-1.84306 17.348165,-3.75477 1.996605,-0.68163 3.360689,-2.15474 5.420131,-2.80973 2.795997,-0.88595 5.869138,-1.16684 8.80662,-1.02785 2.607905,0.12859 5.317346,-0.13274 7.83828,-0.7765 2.250446,-0.57177 4.130526,-1.76441 6.474186,-2.17138 5.20125,-0.90052 10.36047,0.49103 15.57627,-0.31002 2.28083,-0.35122 4.36025,-1.25007 6.67228,-1.50932 2.73108,-0.30336 5.59574,-0.23303 8.26398,0.40032 5.40931,1.30125 10.43412,-0.58799 15.80598,-0.53223 4.00819,0.0416 7.48748,1.58796 11.41536,1.92045 4.80467,0.40448 9.48866,-0.74945 14.27377,0.24802 2.18303,0.45525 3.97948,1.61459 6.12215,2.12727 2.67157,0.63627 5.37976,0.75362 8.11917,0.69494 2.46475,-0.052 4.97695,0.18851 7.34974,0.82478 2.59958,0.68786 4.33069,2.47224 6.83789,3.23335 5.57868,1.68908 12.58095,0.32458 17.38104,4.02525 0.93172,0.71575 1.27753,1.80144 2.3112,2.35532 1.07196,0.58008 2.27167,0.97749 3.45765,1.30332 2.06735,0.56262 4.20461,0.72449 6.29484,1.17391 2.39402,0.51518 4.9395,1.29709 6.82042,2.82929 0.99706,0.81063 1.76898,1.89008 1.91839,3.13848 0.13149,1.13188 1.39071,1.57173 2.45892,2.04446 3.41396,1.50307 7.20951,1.76398 10.4466,3.69942 2.05653,1.23175 3.91415,3.26331 3.38858,5.69977 -0.21348,0.98374 -1.03243,1.33163 -0.14898,2.06735 1.0653,0.88719 2.37653,1.52471 3.68694,2.04363 3.89001,1.54052 11.15319,4.95989 7.92399,10.03213 -0.59757,0.93838 -1.51513,1.65621 -2.54257,2.16389 -0.73032,0.3612 0.12151,1.0291 0.52849,1.44024 1.82724,1.84097 4.47218,2.69238 6.23824,4.63572 1.70032,1.85345 2.5018,4.42391 1.21927,6.68476 -1.4419,2.54382 -4.10431,2.81638 -6.62899,3.89958 -2.75355,1.18348 -0.90591,3.11142 0.46857,4.53918 1.88966,1.96206 3.14056,4.64154 2.22257,7.27733 -1.93668,5.5741 -8.6847,4.65528 -13.39199,6.10633 -2.21175,0.68163 -4.86127,2.30746 -3.78431,4.81341 1.1327,2.63204 0.81437,5.58118 -1.12648,7.80457 -3.85006,4.40643 -10.2918,4.06729 -15.74397,3.91124 -2.76563,-0.077 -5.60905,0.27922 -8.17368,1.26962 -1.18348,0.45816 -2.32618,1.06155 -3.26997,1.87301 -1.25506,1.08112 -1.46396,2.23547 -1.95916,3.67279 -1.74775,5.07599 -7.6481,7.3847 -12.91718,7.82122 -4.40851,0.36328 -8.26897,-0.81729 -12.54142,-1.47478 -4.15757,-0.63585 -8.56442,-0.41488 -12.56888,0.83893 -1.88924,0.59174 -3.75102,1.4394 -5.23578,2.69238 -1.39613,1.18057 -2.49971,2.49513 -4.10557,3.46888 -3.51216,2.13102 -7.78044,3.0411 -11.93636,3.0411 -4.25204,0 -8.53696,-0.95586 -12.25428,-2.89628 -3.65822,-1.89549 -7.99017,-2.62123 -12.14026,-2.62123 -4.15217,0.003 -8.49369,0.71867 -12.14317,2.6387 -3.7323,1.955 -8.0322,2.91793 -12.30089,2.91793"
       inkscape:connector-curvature="0" />
    <path
       style="fill:#010101;stroke:none"
       id="36CE5F62"
       d="m 174.2965,209.85582 c 0,8.77375 -15.6079,15.88671 -34.8607,15.88671 -19.25323,0 -34.86237,-7.11296 -34.86237,-15.88671 0,-8.77458 15.60873,-15.8892 34.86237,-15.88878 19.25114,0 34.85903,7.11587 34.85903,15.87963"
       inkscape:connector-curvature="0" />
    <path
       style="fill:#ffcd05;stroke:none"
       id="19CE5F62"
       d="m 177.61807,267.32794 c -3.88835,0 -7.76254,-0.70119 -11.20521,-2.02824 -4.20211,-1.62125 -7.28233,-4.03898 -8.91065,-6.99311 -0.17977,-0.32417 -0.32376,-0.56552 -0.43986,-0.76069 -0.67247,-1.12314 -0.78607,-1.54968 -0.8693,-3.25957 l -0.1573,-3.19132 -0.23386,-5.02522 3.78805,3.3095 c 1.0782,0.94129 2.32577,1.78022 3.70983,2.49305 4.12512,2.12395 9.03633,3.24334 14.20261,3.24334 4.87583,0 9.56648,-1.00288 13.56594,-2.90544 1.57881,-0.75112 3.00781,-1.67868 4.24705,-2.75896 l 3.83217,-3.33613 -0.28089,5.07224 c -0.0533,0.94712 -0.10903,1.35243 -0.15855,1.70906 -0.0429,0.31459 -0.0811,0.58591 -0.12317,1.36616 -0.26425,5.15922 -4.63864,8.31642 -7.22199,9.73834 -3.95534,2.18054 -8.708,3.32907 -13.74695,3.32907"
       inkscape:connector-curvature="0" />
    <path
       style="fill:#1d1d1b;stroke:none"
       id="0CCE5F62"
       d="m 153.42369,241.14485 0.46815,10.05003 c 0.0304,0.64376 0.0616,1.28502 0.0936,1.92586 l 0.0624,1.26838 c 0.0953,1.94042 0.26133,2.73524 1.17141,4.2587 0.10695,0.17769 0.23928,0.39741 0.40531,0.70035 1.87177,3.39648 5.33608,6.14753 10.01258,7.95313 3.6886,1.4211 7.83037,2.1718 11.9788,2.1718 5.39974,0 10.51068,-1.24216 14.77979,-3.59289 5.13633,-2.82513 8.09462,-6.91613 8.33057,-11.51357 0.0362,-0.67871 0.0657,-0.89759 0.10486,-1.17391 0.0641,-0.46565 0.12193,-0.92756 0.17519,-1.88591 l 0.56262,-10.14657 -7.66392,6.67186 c -1.09277,0.95294 -2.3574,1.77356 -3.75893,2.43854 -3.71274,1.76773 -8.08588,2.70029 -12.64545,2.70029 -4.82631,0 -9.39878,-1.04117 -13.22179,-3.00573 -1.22884,-0.63294 -2.33284,-1.37407 -3.27996,-2.20135 l -7.56738,-6.62067 z m 4.75473,9.84987 c 1.17516,1.02535 2.5509,1.96498 4.14011,2.7831 4.42557,2.27749 9.67426,3.48345 15.18427,3.48345 5.19251,0 10.2015,-1.07821 14.48725,-3.11518 1.84097,-0.87512 3.40813,-1.9217 4.73435,-3.07813 -0.0953,1.72862 -0.1881,1.34869 -0.28089,3.07813 -0.18602,3.61994 -3.13973,6.33896 -6.11591,7.97644 -3.76642,2.07317 -8.24359,3.06066 -12.70995,3.06066 -3.61286,0 -7.2199,-0.64667 -10.43411,-1.88675 -3.05317,-1.17682 -6.17833,-3.07897 -7.80291,-6.02644 -0.91716,-1.65704 -0.95711,-1.27045 -1.04574,-3.08978 -0.052,-1.06114 -0.1057,-2.12644 -0.15647,-3.18758"
       inkscape:connector-curvature="0" />
    <path
       style="fill:#ffcd05;stroke:none"
       id="AECE5F62"
       d="m 177.49906,254.81898 c -5.07766,0 -9.91312,-0.98041 -13.98332,-2.83511 -5.68812,-2.5871 -8.66472,-6.60653 -8.16328,-11.03335 0.43861,-3.89459 3.54795,-7.24404 8.75377,-9.43082 3.94203,-1.65413 8.55195,-2.52842 13.33207,-2.52842 4.81299,0 9.43831,0.88761 13.38408,2.56754 0.35205,0.124 0.83685,0.31917 1.3258,0.60464 4.84462,2.41024 7.50621,5.8837 7.49622,9.79202 -0.004,4.21792 -3.21255,7.98518 -8.80412,10.33216 -3.95119,1.65621 -8.56443,2.53009 -13.3433,2.53009"
       inkscape:connector-curvature="0" />
    <path
       style="fill:#1d1d1b;stroke:none"
       id="71DE5F62"
       d="m 177.43913,226.84653 c -5.06267,0 -9.96014,0.93255 -14.16266,2.69737 -5.95403,2.50013 -9.5257,6.46795 -10.05502,11.17192 -0.60381,5.32525 2.91376,10.2685 9.40876,13.22346 4.34484,1.97871 9.48825,3.02653 14.87009,3.02653 5.06101,0 9.96181,-0.93255 14.16933,-2.69737 6.42759,-2.69821 10.11619,-7.18537 10.12118,-12.31171 0.0121,-4.746 -3.049,-8.88985 -8.62435,-11.68085 -0.57759,-0.33208 -1.13979,-0.56553 -1.56466,-0.71783 -4.19379,-1.77273 -9.08709,-2.70903 -14.161,-2.70903 m 0,4.29033 c 4.55998,0 8.90732,0.83602 12.61299,2.42398 0.34747,0.11901 0.73572,0.28713 1.07195,0.4902 2.61373,1.28793 6.38681,3.84466 6.37682,7.90029 -0.004,3.31533 -2.73357,6.3635 -7.48872,8.36052 -3.68819,1.54594 -8.01431,2.36239 -12.51187,2.36239 -4.76597,0 -9.29724,-0.91008 -13.09529,-2.64161 -4.78428,-2.17596 -7.31062,-5.3935 -6.91946,-8.83867 0.34664,-3.08978 2.99866,-5.82502 7.45211,-7.69346 3.68819,-1.54385 8.01264,-2.35947 12.50147,-2.35947"
       inkscape:connector-curvature="0" />
    <path
       style="fill:#669a40;stroke:none"
       id="24DE5F62"
       d="m 220.66577,245.36028 c -3.88835,0 -7.76213,-0.70035 -11.20646,-2.02948 -4.20003,-1.62001 -7.28066,-4.03607 -8.90982,-6.9902 -0.17977,-0.32334 -0.32334,-0.56428 -0.43902,-0.75861 -0.67247,-1.12398 -0.78566,-1.55176 -0.87138,-3.25874 l -0.40865,-8.22736 3.80304,3.31658 c 1.08195,0.94337 2.33243,1.78313 3.71482,2.4943 4.12138,2.12103 9.03258,3.24334 14.20179,3.24334 4.87333,0 9.56398,-1.00496 13.56634,-2.90711 1.57423,-0.7482 3.00157,-1.67659 4.24373,-2.75771 l 3.82384,-3.33197 -0.27256,5.06433 c -0.0516,0.95711 -0.10778,1.36242 -0.1573,1.71863 -0.0433,0.31751 -0.0807,0.58675 -0.12359,1.36242 -0.26092,5.15214 -4.63448,8.31142 -7.21741,9.73709 -3.95243,2.1847 -8.70509,3.33323 -13.74404,3.33323"
       inkscape:connector-curvature="0" />
    <path
       style="fill:#1d1d1b;stroke:none"
       id="27DE5F62"
       d="m 196.43518,219.16471 0.50352,10.07874 c 0.0533,1.05865 0.10487,2.11521 0.15605,3.17676 0.0982,1.94542 0.26383,2.73816 1.17267,4.26287 0.10736,0.17685 0.23969,0.39824 0.40531,0.6991 1.87385,3.39731 5.3369,6.14836 10.01424,7.95313 3.68694,1.4211 7.82995,2.17097 11.97838,2.17097 5.39933,0 10.51027,-1.24133 14.78021,-3.58998 5.138,-2.83511 8.0942,-6.92279 8.32724,-11.51939 0.0362,-0.66706 0.067,-0.88761 0.10528,-1.16517 0.0666,-0.48438 0.12276,-0.92964 0.17478,-1.89757 l 0.54596,-10.13117 -7.64894,6.66437 c -1.09484,0.95294 -2.35697,1.77231 -3.75435,2.4377 -3.71565,1.76566 -8.09004,2.69904 -12.64586,2.69904 -4.82922,0 -9.40044,-1.04116 -13.21971,-3.00573 -1.22967,-0.63169 -2.33534,-1.37323 -3.28703,-2.203 l -7.60733,-6.629 z m 4.78928,9.86235 c 1.17432,1.02327 2.54923,1.96374 4.14177,2.78435 4.42266,2.27625 9.67301,3.48053 15.18427,3.48053 5.19292,0 10.20067,-1.07695 14.48684,-3.11433 1.84138,-0.87513 3.40563,-1.92379 4.73226,-3.07897 -0.0936,1.73028 -0.18684,1.34952 -0.28089,3.07897 -0.18352,3.61827 -3.13764,6.33687 -6.11133,7.97768 -3.76767,2.07317 -8.24526,3.05774 -12.71161,3.05774 -3.61328,0 -7.22032,-0.64542 -10.43495,-1.88466 -3.05358,-1.17599 -6.17999,-3.08188 -7.80374,-6.02519 -0.91549,-1.65621 -0.95502,-1.27129 -1.04574,-3.08979 -0.0537,-1.06114 -0.10611,-2.12227 -0.15855,-3.18341"
       inkscape:connector-curvature="0" />
    <path
       style="fill:#669a40;stroke:none"
       id="5EDE5F62"
       d="m 220.54592,232.85133 c -5.07765,0 -9.91228,-0.97958 -13.98373,-2.83304 -5.68437,-2.58585 -8.65972,-6.60527 -8.16369,-11.03043 0.4411,-3.89958 3.55086,-7.24945 8.75668,-9.43415 3.94494,-1.65538 8.55361,-2.52926 13.32957,-2.52926 4.80842,0 9.4354,0.88678 13.38658,2.56671 0.34747,0.12193 0.82852,0.31793 1.32081,0.60464 4.84628,2.40816 7.50787,5.88371 7.49954,9.79286 -0.005,4.21667 -3.21254,7.98351 -8.80162,10.33216 -3.95368,1.66037 -8.56693,2.53425 -13.34497,2.53425"
       inkscape:connector-curvature="0" />
    <path
       style="fill:#1d1d1b;stroke:none"
       id="41EE5F62"
       d="m 220.48517,204.87887 c -5.05768,0 -9.9539,0.93297 -14.16017,2.69613 -5.95403,2.49971 -9.5257,6.46587 -10.05669,11.17233 -0.59881,5.33067 2.91751,10.27183 9.40669,13.22512 4.34651,1.97871 9.48991,3.02446 14.87092,3.02446 5.05976,0 9.96014,-0.93256 14.16975,-2.6953 6.42925,-2.70111 10.11619,-7.18744 10.12118,-12.31254 0.01,-4.74641 -3.05275,-8.89359 -8.62935,-11.68376 -0.57926,-0.33041 -1.13771,-0.56344 -1.55675,-0.7145 -4.19961,-1.75192 -9.09417,-2.70903 -14.16433,-2.70903 m 0,4.29034 c 4.5604,0 8.90774,0.83559 12.61423,2.4248 0.34831,0.11818 0.73448,0.28713 1.0703,0.49021 2.6129,1.28626 6.38556,3.84423 6.37723,7.89945 -0.003,3.31366 -2.73649,6.36309 -7.48789,8.36052 -3.69027,1.5451 -8.01763,2.36031 -12.51312,2.36031 -4.7668,0 -9.29557,-0.908 -13.09404,-2.6387 -4.78469,-2.17471 -7.30729,-5.39641 -6.91987,-8.83825 0.34914,-3.09228 2.99865,-5.82586 7.45294,-7.69596 3.68985,-1.54801 8.01306,-2.36363 12.50188,-2.36363"
       inkscape:connector-curvature="0" />
    <path
       style="fill:#ffffff;stroke:none"
       id="F3EE5F62"
       d="m 139.6164,215.91472 c -4.93784,0 -13.37243,-1.94542 -13.6579,-9.23566 -0.56053,-14.35866 -6.59779,-86.34757 -7.96229,-102.53098 l 43.55247,0.16728 c -2.36904,30.62114 -7.84285,100.82068 -8.27647,103.70032 -0.36494,2.24712 -2.15973,4.41059 -4.92534,5.93322 -2.30954,1.28169 -5.40973,1.9808 -8.73047,1.9808"
       inkscape:connector-curvature="0" />
    <path
       style="fill:#010101;stroke:none"
       id="B6EE5F62"
       d="m 114.88146,101.26178 c 0,0 7.59442,89.54348 8.21862,105.51466 0.32375,8.27896 8.52698,11.98379 16.51549,11.98379 3.79055,0 7.38219,-0.82436 10.11078,-2.32368 3.54087,-1.94834 5.86248,-4.85835 6.37057,-7.98476 0.52308,-3.20131 8.54072,-107.00025 8.54072,-107.00025 l -49.75701,-0.20807 z m 6.22951,5.74263 37.35125,0.14399 c -3.14971,40.69987 -7.56904,96.97561 -8.01513,100.42119 -0.23262,1.32705 -1.5605,2.80265 -3.47055,3.85505 -1.8726,1.02743 -4.55416,1.61626 -7.35723,1.61626 -0.4307,0 -10.54938,-0.0732 -10.79865,-6.48751 -0.53681,-13.59506 -5.97151,-78.76147 -7.71094,-99.5265"
       inkscape:connector-curvature="0" />
    <path
       style="fill:#1d1d1b;stroke:none"
       id="69EE5F62"
       d="m 196.84133,57.026853 c 0,31.493354 -25.53558,57.026857 -57.02269,57.026857 -31.49793,0 -57.031016,-25.534752 -57.031016,-57.026857 C 82.787624,25.533915 108.32029,0 139.81864,0 c 31.48545,0 57.02269,25.55056 57.02269,57.010207"
       inkscape:connector-curvature="0" />
    <path
       style="fill:#cb2027;stroke:none"
       id="1CEE5F62"
       d="m 177.44621,91.14975 c -20.30812,20.3102 -53.0403,20.50828 -73.10623,0.445679 -20.066345,-20.069258 -19.869098,-52.803104 0.43985,-73.110389 20.30937,-20.3101989 53.04446,-20.5074459 73.11039,-0.439853 20.0626,20.057606 19.8641,52.807265 -0.44609,73.114551"
       inkscape:connector-curvature="0" />
    <path
       style="fill:#ffffff;stroke:none"
       id="CEEE5F62"
       d="m 170.92291,21.364263 c 8.2386,9.109982 9.38421,19.971882 5.27531,22.1932 -4.14218,2.300383 -11.76907,-2.307041 -18.84624,-8.40422 -6.954,-6.171251 -11.45697,-13.714908 -8.512,-18.954021 2.86716,-5.201662 13.83184,-3.994876 22.08501,5.160047"
       inkscape:connector-curvature="0" />
  </g>
</svg>
